<?xml version='1.0' encoding='utf-8'?>
<svg xmlns="http://www.w3.org/2000/svg" enable-background="new 0 0 612 792" version="1.1" viewBox="0 0 612 792"> <g stroke-width="2.4671"> <linearGradient id="p" x1="320.06" x2="320.06" y1="644.26" y2="212.09" gradientTransform="matrix(1 0 0 -1 0 794)" gradientUnits="userSpaceOnUse"> <stop stop-color="#ccc" offset=".0112"/> <stop stop-color="#666" offset=".3146"/> <stop stop-color="#333" offset=".8371"/> </linearGradient> <path d="m525.9 181.62c-4.966-21.488-48.254-34.273-48.254-34.273s-45.552-7.487-42.277 16.373c16.394 119.55 91.275 383.56-115.31 383.56-206.6 0-131.7-263.99-115.32-383.56 3.267-23.862-42.279-16.373-42.279-16.373s-43.287 12.788-48.251 34.273c-17.305 74.887-50.657 153.26-53.58 234.68-5.481 152.4 106.83 261.51 259.42 261.5 152.59-5e-3 264.89-109.1 259.42-261.5-2.921-81.431-36.28-159.78-53.579-234.68z" fill="url(#p)" stroke="#000"/> <linearGradient id="q" x1="320.23" x2="320.23" y1="126.19" y2="606.74" gradientTransform="matrix(1 0 0 -1 0 794)" gradientUnits="userSpaceOnUse"> <stop stop-color="#999" offset="0"/> <stop stop-color="#333" offset="1"/> </linearGradient> <path d="m443.72 159.27c0.212 2.046 2.195 10.854 4.132 19.343 22.087 96.56 59.819 228.52-3.715 316.7-28.445 39.487-76.438 57.54-123.88 57.537-47.474 0-95.437-18.022-123.91-57.511-63.519-88.099-25.888-220.29-3.786-316.77 1.945-8.488 3.918-17.311 4.13-19.353 0.779-7.614-18.513-10.372-34.782-6.772-16.285 3.605-36.804 14.624-38.035 21.655-0.498 2.866-1.876 7.6-5.315 18.82-16.404 53.518-31.733 107.6-40.92 162.36-11.646 69.393-7.567 145.81 33.704 206.18 47.893 70.049 131.12 98.716 208.92 98.7 77.787-0.019 161-28.694 208.88-98.768 41.25-60.354 45.314-136.74 33.647-206.11-9.21-54.761-24.544-108.8-40.958-162.29-3.446-11.217-4.817-15.948-5.32-18.81-1.224-7.039-21.753-18.06-38.044-21.673-16.253-3.601-35.529-0.857-34.756 6.759z" fill="url(#q)" stroke="#999"/> <linearGradient id="r" x1="529.54" x2="140.27" y1="388.8" y2="388.8" gradientTransform="matrix(1 0 0 -1 0 794)" gradientUnits="userSpaceOnUse"> <stop stop-color="#999" offset="0"/> <stop stop-color="#333" offset="1"/> </linearGradient> <path d="m458.69 168.52c0.693 2.996 1.51 6.425 2.295 9.68 11.138 46.034 21.515 92.518 27.942 139.14 8.619 62.544 7.77 134.26-30.688 188.12-31.537 44.161-84.263 65.234-137.6 65.007-53.362 0.277-106.09-20.779-137.66-64.919-38.51-53.854-39.379-125.64-30.816-188.24 6.387-46.659 16.732-93.172 27.841-139.24 0.783-3.259 1.6-6.692 2.299-9.691-5.23-1.285-14.486-1.338-22.36 0.241-8.494 1.704-19.051 6.006-24.516 9.484-0.922 3.534-2.199 8.048-4.111 14.6-13.565 46.537-26.329 93.583-35.05 140.85-1.282 6.957-2.47 14.271-3.36 21.401-8.409 67.405-7.404 139.43 33.328 198.32 44.815 64.786 122.69 89.745 194.42 89.706 71.743-0.042 149.59-25.076 194.36-89.871 40.666-58.864 41.639-130.8 33.178-198.16-0.896-7.122-2.083-14.423-3.371-21.375-8.761-47.21-21.564-94.216-35.165-140.69-1.913-6.549-3.189-11.062-4.118-14.587-5.464-3.486-16.032-7.796-24.594-9.521-7.811-1.569-17.047-1.526-22.265-0.252z" fill="url(#r)" stroke="#333"/> <g opacity=".8" stroke="#000"> <radialGradient id="s" cx="325.95" cy="186" r="25.821" gradientTransform="matrix(1 0 0 -1 0 794)" gradientUnits="userSpaceOnUse"> <stop stop-color="#333" offset="0"/> <stop offset="1"/> </radialGradient> <path d="m359.34 610.49c0.142 6.387-5.167 11.767-11.864 11.923-17.184 0.409-25.782 0.455-42.97 0.22-6.704-0.089-12.049-5.414-11.949-11.81 0.04-2.408 0.059-3.611 0.095-6.017 0.101-6.398 5.521-11.463 12.107-11.381 16.903 0.204 25.367 0.164 42.262-0.198 6.589-0.144 12.041 4.868 12.186 11.259 0.053 2.402 0.079 3.602 0.133 6.004z" fill="url(#s)"/> <radialGradient id="t" cx="431.65" cy="210.28" r="28.34" gradientTransform="matrix(1 0 0 -1 0 794)" gradientUnits="userSpaceOnUse"> <stop stop-color="#333" offset="0"/> <stop offset="1"/> </radialGradient> <path d="m461 568.39c3.541 5.107 2.036 12.141-3.454 15.73-14.088 9.211-21.235 13.78-35.723 22.768-5.647 3.509-13.07 2.02-16.504-3.324-1.291-2.005-1.939-3.007-3.22-5.024-3.411-5.361-1.57-12.466 4.022-15.873 14.349-8.729 21.42-13.167 35.378-22.1 5.446-3.483 12.648-2.12 16.177 3.01 1.326 1.93 1.987 2.895 3.324 4.813z" fill="url(#t)"/> <radialGradient id="u" cx="501.72" cy="283.24" r="26.486" gradientTransform="matrix(1 0 0 -1 0 794)" gradientUnits="userSpaceOnUse"> <stop stop-color="#333" offset="0"/> <stop offset="1"/> </radialGradient> <path d="m518.39 484.93c5.516 2.701 7.863 9.129 5.154 14.476-6.943 13.726-10.51 20.682-17.86 34.715-2.861 5.471-9.835 7.814-15.483 5.105-2.118-1.018-3.184-1.526-5.297-2.561-5.628-2.746-7.758-9.486-4.828-14.951 7.496-14.009 11.139-20.96 18.235-34.705 2.768-5.352 9.411-7.375 14.91-4.633 2.063 1.03 3.091 1.542 5.169 2.554z" fill="url(#u)"/> <radialGradient id="v" cx="524.85" cy="371.54" r="23.011" gradientTransform="matrix(1 0 0 -1 0 794)" gradientUnits="userSpaceOnUse"> <stop stop-color="#333" offset="0"/> <stop offset="1"/> </radialGradient> <path d="m527.52 393.53c5.754 0.614 10.495 5.725 10.568 11.466 0.193 14.73 0.265 22.132 0.345 37.021 0.031 5.803-4.822 10.312-10.821 10.002-2.257-0.122-3.374-0.178-5.632-0.308-5.997-0.334-10.793-5.474-10.714-11.408 0.202-15.22 0.283-22.797 0.368-37.879 0.039-5.879 4.725-10.102 10.479-9.471 2.164 0.23 3.245 0.352 5.407 0.577z" fill="url(#v)"/> <radialGradient id="w" cx="519.45" cy="460.5" r="23.331" gradientTransform="matrix(1 0 0 -1 0 794)" gradientUnits="userSpaceOnUse"> <stop stop-color="#333" offset="0"/> <stop offset="1"/> </radialGradient> <path d="m521.07 362.71c-5.568 0.047-10.762-4.687-11.585-10.566-2.101-15.082-3.151-22.622-5.258-37.698-0.82-5.881 2.842-10.431 8.166-10.145 2.003 0.106 3.005 0.156 5.003 0.265 5.319 0.292 10.369 5.185 11.296 10.91 2.383 14.693 3.58 22.036 5.966 36.721 0.932 5.728-2.813 10.414-8.371 10.459-2.086 0.025-3.13 0.033-5.217 0.054z" fill="url(#w)"/> <radialGradient id="x" cx="213.27" cy="210.09" r="28.342" gradientTransform="matrix(1 0 0 -1 0 794)" gradientUnits="userSpaceOnUse"> <stop stop-color="#333" offset="0"/> <stop offset="1"/> </radialGradient> <path d="m183.87 568.69c-3.528 5.134-1.998 12.168 3.503 15.741 14.121 9.169 21.279 13.719 35.789 22.656 5.659 3.483 13.082 1.967 16.5-3.396 1.286-2.011 1.924-3.022 3.203-5.043 3.397-5.376 1.535-12.484-4.063-15.87-14.375-8.682-21.465-13.104-35.447-21.996-5.453-3.469-12.654-2.082-16.167 3.075-1.326 1.934-1.989 2.903-3.318 4.833z" fill="url(#x)"/> <radialGradient id="m" cx="142.97" cy="282.94" r="26.548" gradientTransform="matrix(1 0 0 -1 0 794)" gradientUnits="userSpaceOnUse"> <stop stop-color="#333" offset="0"/> <stop offset="1"/> </radialGradient> <path d="m126.2 485.22c-5.511 2.726-7.834 9.18-5.11 14.535 6.988 13.744 10.581 20.71 17.967 34.757 2.883 5.476 9.863 7.797 15.507 5.061 2.116-1.025 3.179-1.549 5.291-2.59 5.627-2.771 7.744-9.534 4.797-15.002-7.534-14.018-11.207-20.975-18.351-34.74-2.785-5.362-9.431-7.37-14.926-4.604-2.065 1.038-3.098 1.556-5.175 2.583z" fill="url(#m)"/> <radialGradient id="n" cx="119.61" cy="371.47" r="23.086" gradientTransform="matrix(1 0 0 -1 0 794)" gradientUnits="userSpaceOnUse"> <stop stop-color="#333" offset="0"/> <stop offset="1"/> </radialGradient> <path d="m116.79 393.5c-5.754 0.622-10.478 5.76-10.534 11.522-0.148 14.791-0.195 22.228-0.233 37.175-0.011 5.823 4.859 10.338 10.856 10.007 2.257-0.125 3.376-0.184 5.633-0.32 6.003-0.35 10.787-5.512 10.687-11.47-0.252-15.271-0.352-22.872-0.485-38.009-0.056-5.902-4.759-10.133-10.518-9.495-2.164 0.241-3.242 0.36-5.406 0.59z" fill="url(#n)"/> <radialGradient id="o" cx="124.68" cy="460.78" r="23.39" gradientTransform="matrix(1 0 0 -1 0 794)" gradientUnits="userSpaceOnUse"> <stop stop-color="#333" offset="0"/> <stop offset="1"/> </radialGradient> <path d="m123.16 362.55c5.569 0.044 10.751-4.703 11.551-10.605 2.062-15.14 3.089-22.709 5.148-37.85 0.802-5.903-2.877-10.472-8.205-10.197-2.002 0.106-2.999 0.162-5.002 0.27-5.327 0.283-10.369 5.185-11.281 10.938-2.336 14.754-3.507 22.135-5.843 36.895-0.917 5.751 2.834 10.454 8.397 10.504 2.093 0.018 3.142 0.026 5.235 0.045z" fill="url(#o)"/> </g> </g> </svg>